<svg xmlns="http://www.w3.org/2000/svg" xmlns:xlink="http://www.w3.org/1999/xlink" viewBox="0 0 944 621.98">
    <defs>
        <linearGradient id="linear-gradient" x1="626.7" y1="15112.07" x2="736.49" y2="15055.11" gradientTransform="matrix(0.81, 0, 0, -0.81, -490.73, 12646.55)" gradientUnits="userSpaceOnUse">
            <stop offset="0" stop-color="#f16667"/>
            <stop offset="1" stop-color="#ee3937"/>
        </linearGradient>
        <linearGradient id="linear-gradient-2" x1="617.18" y1="15313.33" x2="789.74" y2="15313.33" gradientTransform="matrix(0.81, 0, 0, -0.81, -490.73, 12646.55)" gradientUnits="userSpaceOnUse">
            <stop offset="0" stop-color="#f87b58"/>
            <stop offset="0.41" stop-color="#f89453"/>
            <stop offset="0.71" stop-color="#f8c548"/>
            <stop offset="1" stop-color="#f89c51"/>
        </linearGradient>
        <linearGradient id="linear-gradient-3" x1="24.06" y1="202.13" x2="151.03" y2="291.8" gradientTransform="matrix(1, 0, 0, 1, 0, 0)" xlink:href="#linear-gradient"/>
        <linearGradient id="linear-gradient-4" x1="56.5" y1="99.3" x2="103.16" y2="99.3" gradientUnits="userSpaceOnUse">
            <stop offset="0" stop-color="#4f4f4f"/>
            <stop offset="1" stop-color="#201d1d"/>
        </linearGradient>
        <linearGradient id="linear-gradient-5" x1="443.42" y1="581.45" x2="649.04" y2="581.45" gradientTransform="matrix(1, 0, 0, 1, 0, 0)" xlink:href="#linear-gradient"/>
        <linearGradient id="linear-gradient-6" x1="1407.97" y1="24509.85" x2="1693.47" y2="24509.85" gradientTransform="matrix(0.4, 0, 0, -0.4, -52.65, 10282.65)" gradientUnits="userSpaceOnUse">
            <stop offset="0" stop-color="#f87b58"/>
            <stop offset="0.5" stop-color="#f8c548"/>
            <stop offset="1" stop-color="#f89c51"/>
        </linearGradient>
        <linearGradient id="linear-gradient-7" x1="1286.83" y1="-8836.5" x2="1721.22" y2="-8836.5" gradientTransform="translate(-52.65 4039.5) scale(0.4)" xlink:href="#linear-gradient"/>
        <linearGradient id="linear-gradient-8" x1="1373.86" y1="-9021.02" x2="1618.57" y2="-9021.02" gradientTransform="translate(-52.65 4039.5) scale(0.4)" xlink:href="#linear-gradient-4"/>
        <style>
            .cls-1{fill:#201d1d}.cls-2{fill:#fff}.cls-3{fill:#f16667}.cls-4{fill:#ee3937}.cls-5{fill:#e9edfa}.cls-6{fill:#4f4f4f}.cls-7{fill:none;stroke:#f16667;stroke-miterlimit:10;stroke-width:3px}.cls-12{opacity:.07;isolation:isolate}
        </style>
    </defs>
    <title>
        hero-graphic
    </title>
    <g id="Layer_2" data-name="Layer 2">
        <g id="Layer_1-2" data-name="Layer 1">
            <g id="hero-graphic">
                <g id="objects">
                    <g id="bg">
                        <path class="cls-1" d="M103.93,268.48A107.82,107.82,0,0,1,93.81,191.6C111.59,118.06,162.09-11,295.72,7.28,481.14,32.66,535,39,611.12,15.2S818.74-8.57,859.95,45.31c25,32.66,109.36,179.07,55.47,229.84S941.5,426.27,943.94,479.6s-74.49,60.19-171.16,61.82-658.6-16.84-658.6-16.84-72-124.25-15-168.63C134.51,328.5,118.7,295.61,103.93,268.48Z"/>
                        <path class="cls-1" d="M160.15,466.46c-12.37-.43-58.69,5.89-61.41,8.32-.71.66-10.84,30.78,33.74,69.72,71.32,62.3,263.25,64.42,325.45,40.73,90.24-34.38,189.13,30.09,394.1,5.41,65.5-7.88,109.28-108.22,79.5-121.23-17.83-7.76-39.18,12.82-57.11,3.79-20.64-10.41-62.45-16.92-88.34-8.93a2,2,0,0,0,.9,3.9l-13.64,4.35c-15.15,11.28-11.74-3.71-47.28-5.64L621.29,464.3c-37.46,1.13-181.62,7.47-238,5.21h-31c-20.7-2.59-74.39-3.81-76.33-3.88Z"/>
                    </g>
                    <g id="chair">
                        <path class="cls-2" d="M192.92,328.5"/>
                        <path class="cls-3" d="M202.79,313h31.73s9.87,1.41,10.58,8.46-.23,98.76-.23,98.76l63.68-.76a9.75,9.75,0,0,1,6.35,9.17c0,7.05-4.94,9.87-4.94,9.87l-96.76-.44L202.79,313"/>
                        <path class="cls-4" d="M202.79,313s-9.17,1.41-9.87,15.51,0,109.28,0,109.28l96.66.71a5,5,0,0,0,3.69-1.61c1.41-1.55,3.29-4,3.29-6.13,0-3.8-1.41-9.87-9.17-9.87s-73.32-.71-73.32-.71l-1.41-98.7S212.66,314.4,202.79,313Z"/>
                        <path class="cls-3" d="M243.27,438.25s-1.71,8,3.93,8h9.17c.71,0,3.71-4.23,1.85-7.76s-14.95-.25-14.95-.25"/>
                        <polygon class="cls-5" points="247.2 446.29 247.91 525.91 254.25 525.91 254.61 445.83 247.2 446.29"/>
                        <polygon class="cls-5" points="221.12 524.5 281.75 525.2 281.75 530.85 221.12 530.14 221.12 524.5"/>
                    </g>
                    <g id="table">
                        <polygon class="cls-2" points="340.97 531.55 338.15 384.2 352.96 384.2 352.25 531.55 340.97 531.55"/>
                        <polygon class="cls-2" points="663.16 384.91 679.38 384.91 673.74 532.25 663.16 532.96 663.16 384.91"/>
                        <polygon class="cls-3" points="326.87 358.82 327.57 382.79 686.43 384.91 686.81 358.09 326.87 358.82"/>
                        <polygon class="cls-4" points="305.01 345.43 708.28 346.83 708.28 360.23 305.72 359.52 305.01 345.43"/>
                    </g>
                    <g id="flower">
                        <polygon class="cls-3" points="762.2 470.74 762.91 530.67 843.28 529.26 843.28 470.74 762.2 470.74"/>
                        <polyline class="cls-2" points="825.63 529.55 825.68 470.74 820.59 470.74"/>
                        <path class="cls-4" d="M783,470.61s-1.92-35.54,14.89-45.63,2.4-33.62,5.76-46.11,19.21-21.61,19.21-31.22-1.41-36.5,16.81-44.66,32.66,2.4,26.9,18.25-10.09,34.1-16.33,39.86S846.42,376,847.38,387s-7.68,29.29-12.49,36,0,18.25-1.41,30.26c0,0-2.62,16.81-5.26,17.36S783,470.61,783,470.61Z"/>
                        <path class="cls-4" d="M820.56,471.71s2.12-16.92-16.62-21.69-2.68-16-6.43-21.91-21.44-10.27-21.44-14.81,1.61-17.35-18.76-21.23-36.45,1.14-30,8.67,11.28,16.22,18.22,19,4.29,7.05,3.21,12.33,8.57,13.92,13.94,17.12,0,8.67,1.61,14.38c0,0,2.93,8,5.87,8.26S820.56,471.71,820.56,471.71Z"/>
                        <path class="cls-4" d="M804.89,471.7S803.39,454,816.46,449s1.87-16.71,4.48-22.92,14.93-10.74,14.93-15.51-1.12-18.15,13.06-22.2,25.38,1.19,20.9,9.07-7.83,16.92-12.69,19.82-3,7.4-2.24,12.89-6,14.57-9.7,17.91,0,9.07-1.12,15c0,0-2,8.35-4.08,8.63S804.89,471.7,804.89,471.7Z"/>
                    </g>
                    <g id="board">
                        <polygon id="board-comp" class="cls-6" points="388.73 130.95 389.25 266.12 765.41 265.6 765.41 132 388.73 130.95"/>
                        <g id="board-topic">
                            <polygon class="cls-4" points="456.04 173.25 456.04 189.89 610.09 189.16 610.09 173.25 456.04 173.25"/>
                            <circle class="cls-4" cx="430.01" cy="184.12" r="11.57"/>
                        </g>
                        <g id="board-topic-2" data-name="board-topic">
                            <polygon class="cls-4" points="456.04 219.54 456.04 236.18 610.09 235.45 610.09 219.54 456.04 219.54"/>
                            <circle class="cls-4" cx="430.01" cy="227.33" r="11.57"/>
                        </g>
                        <g id="graph">
                            <rect class="cls-2" x="652.14" y="191.46" width="91.45" height="44.61"/>
                            <path class="cls-7" d="M650.71,233.94s7.12-15.59,13.9-13.9,8.46,8.81,13.56,5.76,8.39-15.32,13.33-17.24c7.05-2.74,9.38.28,18.87,5.71s13.53,4.23,17.44.23c3.57-3.67,10.22-13.61,17.58-18"/>
                        </g>
                        <rect id="board-comp-2" data-name="board-comp" class="cls-6" x="223.36" y="132.7" width="136.07" height="129.35"/>
                        <circle id="board-circle" class="cls-7" cx="289.61" cy="211.01" r="35.2"/>
                        <rect class="cls-4" x="232.3" y="143.87" width="34.62" height="8.19"/>
                        <rect class="cls-4" x="232.3" y="156.71" width="34.62" height="8.19"/>
                    </g>
                </g>
                <g id="man">
                    <path class="cls-1" d="M101.69,534.49c-2-8.5-2.7-19.44-4-19.71H96.16l-14.31.13s-3,13.63-4.45,19.3c-.13.4-.4,1.35-.67,2a11.07,11.07,0,0,0-.27,3c.27,5.13,2.29,9.58,6.88,11.88,5.13,2.56,9,5,14.31,0S103.72,543,101.69,534.49Z"/>
                    <path class="cls-1" d="M56.48,516.14l-18.09.94s-7.15,12.42-17.68,15.39c-9.85,2.83-26.18,9.72-18.9,13.63,5.4,3.1,40.22.27,48.72.94,6.34.54,8.1-3.37,7.42-11.88C57.42,528.82,56.48,516.14,56.48,516.14Z"/>
                    <path d="M34.75,290.2s-12.15,99.88-13,106.35S26,436.37,26,442.71s11.88,74.5,11.88,74.5l18.9-.81S53,416.12,53.38,411.27s21.05-63,21.05-63,1.48,15.39,1.48,20.25,5.67,146.71,5.67,146.71H98L121.4,306.26l-.4-4Z" style="fill:url(#linear-gradient)"/>
                    <path d="M90.36,97.33s-18.09,7-22.13,8.64-6.34,6.61-6.34,6.61-2-1.21-2,2.16,1.62,11.07,3,13.09a110.61,110.61,0,0,1,5.8,10.26c1.62,3.51,1.08,10.8-.67,11.88s-32.26,28.61-32.26,28.61L10.32,256.73l3.37,24.7,5.13,24.29s-1.08,1.75,1.08,3.78,11.34,17.14,11.34,17.14l3.1-22.27L24,271.3l-3.64-27.8L44.6,193.83l84.22,15L138,262.94l-17,46.16-3,22.54,14.31-12.55c.81-.67,2.43-4.18,3.24-6.07l8.5-24,6.34-38.33s-53.18-95.83-55.88-101.5c-1.21-2.56.13-8.77.81-11.88.67-2.83,2-6.48,3.37-7.56,2-2.16,3-5.26,3.51-8.1,0-2,.81-9.85-1.21-8-.4.54-1.89-1.89-2.56-5C97.24,104.08,94,100.3,90.36,97.33Z" style="fill:url(#linear-gradient-2)"/>
                    <path d="M83.47,175.48a3.34,3.34,0,0,1-4.59-.13,37.67,37.67,0,0,1-2.56-4.45c-1.35-2.7-11.74-18-11.74-18s-24.7,6.34-28.61,8.91-7.69,6.34-9,11.07S6.54,233.11,5.6,236.48s-5.8,8.77-3.51,22.4,15.12,48.59,16.47,49,15-6.34,15-6.34-10.8-43.46-10.8-47.78,9.72-16.6,13.63-25,6.75-15.66,8.1-19.3S32.86,281.7,32.86,281.7s-.27,13.77,2.29,15.12,31.45,12.28,38.2,14.85a1.63,1.63,0,0,0,1.89-.81h0l4.32-12.28c0-.13.13-.27.27-.13a.13.13,0,0,1,.13.13l4,13.36a1.39,1.39,0,0,0,1.62.94l35.77-7.69s-.54-66,.13-77.07c.54-10.8-.81-16.87,1.21-13.9,2.16,3.24,11.2,32.93,11.2,37.93S123.83,301,123.83,301l13.36,7.42s18.09-48.18,19-54.53,1.35-9.72-1.62-16.06-19.44-64-19.44-64-1.62-7-13.77-10.66-21.19-9-23.35-8.91-8.91,12.82-11.88,16.6C84.82,172.37,85.09,173,83.47,175.48Z" style="fill:url(#linear-gradient-3)"/>
                    <path d="M90.22,97.46S69.84,104.89,65.66,108c-3.1,2.29-3.78,4.45-3.78,4.45s-2.16-.94-2,2.16-2.43-4.86-3.1-7.42a17,17,0,0,1,4.86-15c5.53-5.26,11.61-9.18,16.74-8.91A19.3,19.3,0,0,1,91.71,89c4,3.91,5,3.64,5.8,4s5,4.86,5.53,9.72-.94,12-.94,12a1.51,1.51,0,0,0-2-.27c-1.08.81-1.35-4.59-4.86-11.2C92.65,98.41,90.22,97.46,90.22,97.46Z" style="fill:url(#linear-gradient-4)"/>
                    <path class="cls-12" d="M77.26,338C75,344.73,65.93,358,60,365.92S35.83,390.61,37,411s13.5,72.88,13.5,77.61-4.59,27-8.1,33.88-5.13,19.17-3.37,19.17a49.43,49.43,0,0,0,9.85-1.35c3-.67,5.94-1.35,8.77-2.29,1.21-.54,1.48-4.45,1.48-4.45a14.55,14.55,0,0,0-.54-4.86A53.27,53.27,0,0,1,56.75,521c-.67-19.17-2.43-63.57-2-66.67.67-5.8-4-35.09.27-49.53S77.26,338,77.26,338Z"/>
                    <path class="cls-12" d="M33.54,301.54l-3.1,24s3.1,5,4,.81,7.42-12,3.37-17.68S33.54,301.54,33.54,301.54Z"/>
                    <path class="cls-12" d="M121.26,308.15l-1.08,11.47-1.35,11.07s-4.59,3.37-4.45-.94-7.69-10.8-1.75-15.12S121.26,308.15,121.26,308.15Z"/>
                    <path class="cls-12" d="M64.44,153.07c.81-.13-3.91,1.08.27-.27C71.87,150.51,68.9,137,68.9,137s.67,5,7.42,7,8.5.54-1.62,5.26-4.86,6.34-4.18,12.55"/>
                    <path class="cls-12" d="M44.2,214.08,32.86,282.91s.13,12.28,2.29,14,9.45,3,11.07,4.18,19.17,7,14.58-2.83c-1.08-2.16-24.7-15.39-14.17-29.29s8.64-33.07,3.64-46.43a61.1,61.1,0,0,1-4-24.56Z"/>
                </g>
                <g id="girl">
                    <g id="woman">
                        <path class="cls-1" d="M590.7,605c-3.87-6.43-7-8.13-16.53-8.39s-22.3-.13-22.3-.13l-.13,13.57s10.56,6.1,16.2,9.12l1.9,1.11a17.31,17.31,0,0,0,3.08,1.11c5.57,1.18,10.62.59,14.23-3C591.16,614.41,594.57,611.46,590.7,605Z"/>
                        <path class="cls-1" d="M518.5,593l-1.77,1.38a19.06,19.06,0,0,0-2.16,2.43c-3.15,4.72-4.52,9.64-2.49,14.36,2.23,5.18,3.74,9.51,11.08,8.26s10.16-3.48,14-12.2,8.46-20.66,8.39-20.66L533,581.36S523.42,588.9,518.5,593Z"/>
                        <path d="M552.74,597.1s.2,13.71-2,14-33-4.13-45.25-4.79-40.07-8.59-53.71-24c-11.8-13.31-10-28.07-1.25-28.07s16.72-7.41,38.89,3.15,45.64,12.33,58.82,11.28,50.1-7.87,53-10,16.72-8.13,36-6,10.16,17.38,6.1,23.28c-5.71,8.2-19.21,17-30.49,17.38S552.74,597.1,552.74,597.1Z" style="fill:url(#linear-gradient-5)"/>
                        <path d="M529.91,357.42c-6.49,2.36-14.75,34.49-14.75,34.49l-.13-.13-.92,4.46L513,402.07,515.16,437l21,10.49,48.2,13,13.31,19s29.84,30.36,30,32.46-32.07,12.79-35.15,13.25c-7.41,1.11,47.41-12.33,29.84-33.64-7.48-9.12-18.43-36.53-40.13-54.69-12.59-10.49-9-40.33-13.51-59.22-5.57-23.61-9-30.69-14.56-30.69-5,0-12.07,6-24.26,10.56" style="fill:url(#linear-gradient-6)"/>
                        <path d="M598.11,433.68c-10.1-9.25-13.51-11.48-22.36-8.33s-13.18,6-25.25,8a38.27,38.27,0,0,1-22-2.69l-24.85,2.49c-3.15-.39-38.49,66-39.35,79.74-.52,8.46,18.69,21.51,24.07,22.82,2.16.52,6-20.33,7.28-22.23L487.62,511a131.71,131.71,0,0,1,9.51-17.31c1-1.51,8.66-14.16,9.71-19,.2.46,1.31,9.64,2.36,12.59,2,5.44,4.66,8.53,4.66,12.85s-.52,21.51-3.67,29.25S502.44,555,502.44,555l79.48-.46s-2.89-34.17-1.71-45.9c0,0-1.25-4.72,1.11-11.54,3.87-11.28,5-28.07,4.33-30.69-1-4.13,23.35,30.82,28.66,39.67,2.23,3.67-28,10.16-30.49,13s2.56,11,2.56,11,52.72-6.43,52.46-14.49S609.85,444.37,598.11,433.68Z" style="fill:url(#linear-gradient-7)"/>
                        <path d="M536.28,338.53s-14.75.59-19,16.07-4.85,37.05-5,40.4c-.13,3.54,1.51,24.26-6.43,32.92-6.82,7.48-4.07,14.69-5.77,20.66l-.79,9.9a3.13,3.13,0,0,0,2.1,2.56c1,.33,4.72-1.38,5.38-1.64,9.18-3.67,9.18-6.62,12.66-9.57,2.89-2.43,10.82-8.07,13.18-10.3s4-4.2,4.13-7c.46-14.36-2-27.61-5.18-34.62s-9.18-18.89-4.13-26.76,14.16-15.74,14.69-17.71.79,7.61,6.36,11,10.23,8,11.94,12.53c1.44,3.8,3.34,10.3-1.9,21.51S549,424,556.41,434.73s23,22.23,25.58,27.61c2.89,6,.13,20-.39,28.46s16.53-14.69,16-25.71,1.31-15.74-9.25-32.66-17.44-45.9-17.71-52.92-3.41-26.49-9.77-32.07c-5.51-4.72-6.69-9.31-18-9.31a55.27,55.27,0,0,0-6.62.39" style="fill:url(#linear-gradient-8)"/>
                        <path class="cls-12" d="M502.63,573l74.5.39s-8.72,6.82-12.92,7.61-22.17,9.71-28.85,6.3C530.64,584.77,502.63,573,502.63,573Z"/>
                        <path class="cls-12" d="M544.14,405.75s7,1.77,9.84-2.3c6.49-9.18.59,4.66.59,4.66s-1.9,5.38-1.77,8.07-7.48-10-8.66-10.43"/>
                        <path class="cls-12" d="M516.34,453c-.85,1-2.1,1.9-2.75,4.59-1.11,4.33-2.3,9.18-5.31,13.64-1.77,2.62-.79,12.79,2.16,19.21.85,1.84,3.48,6.62,3.41,7.74l-.2,9.31h8s6.82.72,5.38-4.92c-1.25-5-7.74-23.54-3.34-27.61,8.26-7.54-2.16-22.62,1.71-27.48,3.34-4.2,8.13-7.21,8.13-8.59,0-.52-1.25,1.18-2.1,1.77-1.64,1.18-2.49,2.1-3.87,3s-3.8,2.62-5.31,3.74A36.49,36.49,0,0,0,516.34,453Z"/>
                    </g>
                    <g id="laptop">
                        <path class="cls-2" d="M485.19,512.7s-.07-4.85,4.72-5,106.17-.07,106.17-.07,4.46.52,4.59,4.13.13,57.18.13,57.18a4.2,4.2,0,0,1-4.33,4.26c-4.39.13-107.74.13-107.74.13s-3.87-1-3.8-4.85S485.19,512.7,485.19,512.7Z"/>
                        <circle class="cls-4" cx="543.29" cy="540.44" r="4.39"/>
                    </g>
                </g>
            </g>
        </g>
    </g>
</svg>
