<svg id="eaedls3i66js1" xmlns="http://www.w3.org/2000/svg" xmlns:xlink="http://www.w3.org/1999/xlink" viewBox="0 0 944 621.980000" shape-rendering="geometricPrecision" text-rendering="geometricPrecision">
    <style>
        @keyframes eaedls3i66js4_to__to{0%,67%,to{transform:translate(0,0)}75%,92%{transform:translate(0,-9.999588px)}84%{transform:translate(0,.000412px)}}@keyframes eaedls3i66js4_c_o{0%,92%{opacity:1}to{opacity:0}}@keyframes eaedls3i66js6_c_o{0%{opacity:0}10%,to{opacity:1}}@keyframes eaedls3i66js9_c_o{0%,10%{opacity:0}20%,to{opacity:1}}@keyframes eaedls3i66js16_c_o{0%,10%{opacity:0}20%,to{opacity:1}}@keyframes eaedls3i66js21_c_o{0%,10%{opacity:0}20%,to{opacity:1}}@keyframes eaedls3i66js27_c_o{0%,4%{opacity:0}14%,to{opacity:1}}@keyframes eaedls3i66js42_c_o{0%,28%{opacity:0}38%,to{opacity:1}}@keyframes eaedls3i66js54_c_o{0%,20%{opacity:0}30%,to{opacity:1}}
    </style>
    <defs>
        <linearGradient id="eaedls3i66js45-fill" x1="16.896991" y1="405.773069" x2="105.826891" y2="451.910669" spreadMethod="pad" gradientUnits="userSpaceOnUse">
            <stop id="eaedls3i66js45-fill-0" offset="0%" stop-color="rgb(241,102,103)"/>
            <stop id="eaedls3i66js45-fill-1" offset="100%" stop-color="rgb(238,57,55)"/>
        </linearGradient>
        <linearGradient id="eaedls3i66js46-fill" x1="9.185790" y1="242.752468" x2="148.959391" y2="242.752468" spreadMethod="pad" gradientUnits="userSpaceOnUse">
            <stop id="eaedls3i66js46-fill-0" offset="0%" stop-color="rgb(248,123,88)"/>
            <stop id="eaedls3i66js46-fill-1" offset="41%" stop-color="rgb(248,148,83)"/>
            <stop id="eaedls3i66js46-fill-2" offset="71%" stop-color="rgb(248,197,72)"/>
            <stop id="eaedls3i66js46-fill-3" offset="100%" stop-color="rgb(248,156,81)"/>
        </linearGradient>
        <linearGradient id="eaedls3i66js47-fill" x1="24.060000" y1="202.130000" x2="151.030000" y2="291.800000" spreadMethod="pad" gradientUnits="userSpaceOnUse">
            <stop id="eaedls3i66js47-fill-0" offset="0%" stop-color="rgb(241,102,103)"/>
            <stop id="eaedls3i66js47-fill-1" offset="100%" stop-color="rgb(238,57,55)"/>
        </linearGradient>
        <linearGradient id="eaedls3i66js48-fill" x1="56.500000" y1="99.300000" x2="103.160000" y2="99.300000" spreadMethod="pad" gradientUnits="userSpaceOnUse">
            <stop id="eaedls3i66js48-fill-0" offset="0%" stop-color="rgb(79,79,79)"/>
            <stop id="eaedls3i66js48-fill-1" offset="100%" stop-color="rgb(32,29,29)"/>
        </linearGradient>
        <linearGradient id="eaedls3i66js58-fill" x1="443.420000" y1="581.450000" x2="649.040000" y2="581.450000" spreadMethod="pad" gradientUnits="userSpaceOnUse">
            <stop id="eaedls3i66js58-fill-0" offset="0%" stop-color="rgb(241,102,103)"/>
            <stop id="eaedls3i66js58-fill-1" offset="100%" stop-color="rgb(238,57,55)"/>
        </linearGradient>
        <linearGradient id="eaedls3i66js59-fill" x1="510.538007" y1="478.710245" x2="624.738009" y2="478.710245" spreadMethod="pad" gradientUnits="userSpaceOnUse">
            <stop id="eaedls3i66js59-fill-0" offset="0%" stop-color="rgb(248,123,88)"/>
            <stop id="eaedls3i66js59-fill-1" offset="50%" stop-color="rgb(248,197,72)"/>
            <stop id="eaedls3i66js59-fill-2" offset="100%" stop-color="rgb(248,156,81)"/>
        </linearGradient>
        <linearGradient id="eaedls3i66js60-fill" x1="462.082006" y1="504.899947" x2="635.838009" y2="504.899947" spreadMethod="pad" gradientUnits="userSpaceOnUse">
            <stop id="eaedls3i66js60-fill-0" offset="0%" stop-color="rgb(241,102,103)"/>
            <stop id="eaedls3i66js60-fill-1" offset="100%" stop-color="rgb(238,57,55)"/>
        </linearGradient>
        <linearGradient id="eaedls3i66js61-fill" x1="496.894007" y1="431.091946" x2="594.778008" y2="431.091946" spreadMethod="pad" gradientUnits="userSpaceOnUse">
            <stop id="eaedls3i66js61-fill-0" offset="0%" stop-color="rgb(79,79,79)"/>
            <stop id="eaedls3i66js61-fill-1" offset="100%" stop-color="rgb(32,29,29)"/>
        </linearGradient>
    </defs>
    <g id="eaedls3i66js2">
        <g id="eaedls3i66js3">
            <g transform="translate(0,0)" style="animation:eaedls3i66js4_to__to 5000ms linear infinite normal forwards">
                <g transform="translate(0,0)" style="animation:eaedls3i66js4_c_o 5000ms linear infinite normal forwards">
                    <g id="eaedls3i66js5">
                        <g opacity="0" style="animation:eaedls3i66js6_c_o 5000ms linear infinite normal forwards">
                            <path id="eaedls3i66js7" d="M103.930000,268.480000C91.139280,244.995109,87.532490,217.594912,93.810000,191.600000C111.590000,118.060000,162.090000,-11,295.720000,7.280000C481.140000,32.660000,535,39,611.120000,15.200000C687.240000,-8.600000,818.740000,-8.570000,859.950000,45.310000C884.950000,77.970000,969.310000,224.380000,915.420000,275.150000C861.530000,325.920000,941.500000,426.270000,943.940000,479.600000C946.380000,532.930000,869.450000,539.790000,772.780000,541.420000C676.110000,543.050000,114.180000,524.580000,114.180000,524.580000C114.180000,524.580000,42.180000,400.330000,99.180000,355.950000C134.510000,328.500000,118.700000,295.610000,103.930000,268.480000Z" fill="rgb(32,29,29)" stroke="none" stroke-width="1"/>
                            <path id="eaedls3i66js8" d="M160.150000,466.460000C147.780000,466.030000,101.460000,472.350000,98.740000,474.780000C98.030000,475.440000,87.900000,505.560000,132.480000,544.500000C203.800000,606.800000,395.730000,608.920000,457.930000,585.230000C548.170000,550.850000,647.060000,615.320000,852.030000,590.640000C917.530000,582.760000,961.310000,482.420000,931.530000,469.410000C913.700000,461.650000,892.350000,482.230000,874.420000,473.200000C853.780000,462.790000,811.970000,456.280000,786.080000,464.270000C785.003045,464.518528,784.331472,465.593045,784.580000,466.670000C784.828528,467.746955,785.903045,468.418528,786.980000,468.170000L773.340000,472.520000C758.190000,483.800000,761.600000,468.810000,726.060000,466.880000L621.290000,464.300000C583.830000,465.430000,439.670000,471.770000,383.290000,469.510000L352.290000,469.510000C331.590000,466.920000,277.900000,465.700000,275.960000,465.630000Z" fill="rgb(32,29,29)" stroke="none" stroke-width="1"/>
                        </g>
                        <g opacity="0" style="animation:eaedls3i66js9_c_o 5000ms linear infinite normal forwards">
                            <path id="eaedls3i66js10" d="" fill="rgb(255,255,255)" stroke="none" stroke-width="1"/>
                            <path id="eaedls3i66js11" d="M202.790000,313L234.520000,313C234.520000,313,244.390000,314.410000,245.100000,321.460000C245.810000,328.510000,244.870000,420.220000,244.870000,420.220000L308.550000,419.460000C312.378713,420.884539,314.913412,424.544883,314.900000,428.630000C314.900000,435.680000,309.960000,438.500000,309.960000,438.500000L213.200000,438.060000L202.790000,313" fill="rgb(241,102,103)" stroke="none" stroke-width="1"/>
                            <path id="eaedls3i66js12" d="M202.790000,313C202.790000,313,193.620000,314.410000,192.920000,328.510000C192.220000,342.610000,192.920000,437.790000,192.920000,437.790000L289.580000,438.500000C290.981263,438.504112,292.319946,437.920025,293.270000,436.890000C294.680000,435.340000,296.560000,432.890000,296.560000,430.760000C296.560000,426.960000,295.150000,420.890000,287.390000,420.890000C279.630000,420.890000,214.070000,420.180000,214.070000,420.180000L212.660000,321.480000C212.660000,321.480000,212.660000,314.400000,202.790000,313Z" fill="rgb(238,57,55)" stroke="none" stroke-width="1"/>
                            <path id="eaedls3i66js13" d="M243.270000,438.250000C243.270000,438.250000,241.560000,446.250000,247.200000,446.250000L256.370000,446.250000C257.080000,446.250000,260.080000,442.020000,258.220000,438.490000C256.360000,434.960000,243.270000,438.240000,243.270000,438.240000" fill="rgb(241,102,103)" stroke="none" stroke-width="1"/>
                            <polygon id="eaedls3i66js14" points="247.200000,446.290000 247.910000,525.910000 254.250000,525.910000 254.610000,445.830000 247.200000,446.290000" fill="rgb(233,237,250)" stroke="none" stroke-width="1"/>
                            <polygon id="eaedls3i66js15" points="221.120000,524.500000 281.750000,525.200000 281.750000,530.850000 221.120000,530.140000 221.120000,524.500000" fill="rgb(233,237,250)" stroke="none" stroke-width="1"/>
                        </g>
                        <g opacity="0" style="animation:eaedls3i66js16_c_o 5000ms linear infinite normal forwards">
                            <polygon id="eaedls3i66js17" points="340.970000,531.550000 338.150000,384.200000 352.960000,384.200000 352.250000,531.550000 340.970000,531.550000" fill="rgb(255,255,255)" stroke="none" stroke-width="1"/>
                            <polygon id="eaedls3i66js18" points="663.160000,384.910000 679.380000,384.910000 673.740000,532.250000 663.160000,532.960000 663.160000,384.910000" fill="rgb(255,255,255)" stroke="none" stroke-width="1"/>
                            <polygon id="eaedls3i66js19" points="326.870000,358.820000 327.570000,382.790000 686.430000,384.910000 686.810000,358.090000 326.870000,358.820000" fill="rgb(241,102,103)" stroke="none" stroke-width="1"/>
                            <polygon id="eaedls3i66js20" points="305.010000,345.430000 708.280000,346.830000 708.280000,360.230000 305.720000,359.520000 305.010000,345.430000" fill="rgb(238,57,55)" stroke="none" stroke-width="1"/>
                        </g>
                        <g opacity="0" style="animation:eaedls3i66js21_c_o 5000ms linear infinite normal forwards">
                            <polygon id="eaedls3i66js22" points="762.200000,470.740000 762.910000,530.670000 843.280000,529.260000 843.280000,470.740000 762.200000,470.740000" fill="rgb(241,102,103)" stroke="none" stroke-width="1"/>
                            <polyline id="eaedls3i66js23" points="825.630000,529.550000 825.680000,470.740000 820.590000,470.740000" fill="rgb(255,255,255)" stroke="none" stroke-width="1"/>
                            <path id="eaedls3i66js24" d="M783,470.610000C783,470.610000,781.080000,435.070000,797.890000,424.980000C814.700000,414.890000,800.290000,391.360000,803.650000,378.870000C807.010000,366.380000,822.860000,357.260000,822.860000,347.650000C822.860000,338.040000,821.450000,311.150000,839.670000,302.990000C857.890000,294.830000,872.330000,305.390000,866.570000,321.240000C860.810000,337.090000,856.480000,355.340000,850.240000,361.100000C844,366.860000,846.420000,376,847.380000,387C848.340000,398,839.700000,416.290000,834.890000,423C830.080000,429.710000,834.890000,441.250000,833.480000,453.260000C833.480000,453.260000,830.860000,470.070000,828.220000,470.620000C825.580000,471.170000,783,470.610000,783,470.610000Z" fill="rgb(238,57,55)" stroke="none" stroke-width="1"/>
                            <path id="eaedls3i66js25" d="M820.560000,471.710000C820.560000,471.710000,822.680000,454.790000,803.940000,450.020000C785.200000,445.250000,801.260000,434.020000,797.510000,428.110000C793.760000,422.200000,776.070000,417.840000,776.070000,413.300000C776.070000,408.760000,777.680000,395.950000,757.310000,392.070000C736.940000,388.190000,720.860000,393.210000,727.310000,400.740000C733.760000,408.270000,738.590000,416.960000,745.530000,419.740000C752.470000,422.520000,749.820000,426.790000,748.740000,432.070000C747.660000,437.350000,757.310000,445.990000,762.680000,449.190000C768.050000,452.390000,762.680000,457.860000,764.290000,463.570000C764.290000,463.570000,767.220000,471.570000,770.160000,471.830000C773.100000,472.090000,820.560000,471.710000,820.560000,471.710000Z" fill="rgb(238,57,55)" stroke="none" stroke-width="1"/>
                            <path id="eaedls3i66js26" d="M804.890000,471.700000C804.890000,471.700000,803.390000,454,816.460000,449C829.530000,444,818.330000,432.290000,820.940000,426.080000C823.550000,419.870000,835.870000,415.340000,835.870000,410.570000C835.870000,405.800000,834.750000,392.420000,848.930000,388.370000C863.110000,384.320000,874.310000,389.560000,869.830000,397.440000C865.350000,405.320000,862,414.360000,857.140000,417.260000C852.280000,420.160000,854.140000,424.660000,854.900000,430.150000C855.660000,435.640000,848.900000,444.720000,845.200000,448.060000C841.500000,451.400000,845.200000,457.130000,844.080000,463.060000C844.080000,463.060000,842.080000,471.410000,840,471.690000C837.920000,471.970000,804.890000,471.700000,804.890000,471.700000Z" fill="rgb(238,57,55)" stroke="none" stroke-width="1"/>
                        </g>
                        <g opacity="0" style="animation:eaedls3i66js27_c_o 5000ms linear infinite normal forwards">
                            <polygon id="eaedls3i66js28" points="388.730000,130.950000 389.250000,266.120000 765.410000,265.600000 765.410000,132 388.730000,130.950000" fill="rgb(79,79,79)" stroke="none" stroke-width="1"/>
                            <g id="eaedls3i66js29">
                                <polygon id="eaedls3i66js30" points="456.040000,173.250000 456.040000,189.890000 610.090000,189.160000 610.090000,173.250000 456.040000,173.250000" fill="rgb(238,57,55)" stroke="none" stroke-width="1"/>
                                <circle id="eaedls3i66js31" r="11.570000" transform="matrix(1 0 0 1 430.00999999999999 184.12000000000000)" fill="rgb(238,57,55)" stroke="none" stroke-width="1"/>
                            </g>
                            <g id="eaedls3i66js32">
                                <polygon id="eaedls3i66js33" points="456.040000,219.540000 456.040000,236.180000 610.090000,235.450000 610.090000,219.540000 456.040000,219.540000" fill="rgb(238,57,55)" stroke="none" stroke-width="1"/>
                                <circle id="eaedls3i66js34" r="11.570000" transform="matrix(1 0 0 1 430.00999999999999 227.33000000000001)" fill="rgb(238,57,55)" stroke="none" stroke-width="1"/>
                            </g>
                            <g id="eaedls3i66js35">
                                <rect id="eaedls3i66js36" width="91.450000" height="44.610000" rx="0" ry="0" transform="matrix(1 0 0 1 652.13999999999999 191.46000000000001)" fill="rgb(255,255,255)" stroke="none" stroke-width="1"/>
                                <path id="eaedls3i66js37" d="M650.710000,233.940000C650.710000,233.940000,657.830000,218.350000,664.610000,220.040000C671.390000,221.730000,673.070000,228.850000,678.170000,225.800000C683.270000,222.750000,686.560000,210.480000,691.500000,208.560000C698.550000,205.820000,700.880000,208.840000,710.370000,214.270000C719.860000,219.700000,723.900000,218.500000,727.810000,214.500000C731.380000,210.830000,738.030000,200.890000,745.390000,196.500000" fill="none" stroke="rgb(241,102,103)" stroke-width="3" stroke-miterlimit="10"/>
                            </g>
                            <rect id="eaedls3i66js38" width="136.070000" height="129.350000" rx="0" ry="0" transform="matrix(1 0 0 1 223.36000000000001 132.69999999999999)" fill="rgb(79,79,79)" stroke="none" stroke-width="1"/>
                            <circle id="eaedls3i66js39" r="35.200000" transform="matrix(1 0 0 1 289.61000000000001 211.00999999999999)" fill="none" stroke="rgb(241,102,103)" stroke-width="3" stroke-miterlimit="10"/>
                            <rect id="eaedls3i66js40" width="34.620000" height="8.190000" rx="0" ry="0" transform="matrix(1 0 0 1 232.30000000000001 143.87000000000000)" fill="rgb(238,57,55)" stroke="none" stroke-width="1"/>
                            <rect id="eaedls3i66js41" width="34.620000" height="8.190000" rx="0" ry="0" transform="matrix(1 0 0 1 232.30000000000001 156.71000000000001)" fill="rgb(238,57,55)" stroke="none" stroke-width="1"/>
                        </g>
                    </g>
                    <g opacity="0" style="animation:eaedls3i66js42_c_o 5000ms linear infinite normal forwards">
                        <path id="eaedls3i66js43" d="M101.690000,534.490000C99.690000,525.990000,98.990000,515.050000,97.690000,514.780000L96.160000,514.780000L81.850000,514.910000C81.850000,514.910000,78.850000,528.540000,77.400000,534.210000C77.270000,534.610000,77,535.560000,76.730000,536.210000C76.503736,537.193028,76.412895,538.202369,76.460000,539.210000C76.730000,544.340000,78.750000,548.790000,83.340000,551.090000C88.470000,553.650000,92.340000,556.090000,97.650000,551.090000C102.960000,546.090000,103.720000,543,101.690000,534.490000Z" fill="rgb(32,29,29)" stroke="none" stroke-width="1"/>
                        <path id="eaedls3i66js44" d="M56.480000,516.140000L38.390000,517.080000C38.390000,517.080000,31.240000,529.500000,20.710000,532.470000C10.860000,535.300000,-5.470000,542.190000,1.810000,546.100000C7.210000,549.200000,42.030000,546.370000,50.530000,547.040000C56.870000,547.580000,58.630000,543.670000,57.950000,535.160000C57.420000,528.820000,56.480000,516.140000,56.480000,516.140000Z" fill="rgb(32,29,29)" stroke="none" stroke-width="1"/>
                        <path id="eaedls3i66js45" d="M34.750000,290.200000C34.750000,290.200000,22.600000,390.080000,21.750000,396.550000C20.900000,403.020000,26,436.370000,26,442.710000C26,449.050000,37.880000,517.210000,37.880000,517.210000L56.780000,516.400000C56.780000,516.400000,53,416.120000,53.380000,411.270000C53.760000,406.420000,74.430000,348.270000,74.430000,348.270000C74.430000,348.270000,75.910000,363.660000,75.910000,368.520000C75.910000,373.380000,81.580000,515.230000,81.580000,515.230000L98,515.230000L121.400000,306.260000L121,302.260000Z" fill="url(#eaedls3i66js45-fill)" stroke="none" stroke-width="1"/>
                        <path id="eaedls3i66js46" d="M90.360000,97.330000C90.360000,97.330000,72.270000,104.330000,68.230000,105.970000C64.190000,107.610000,61.890000,112.580000,61.890000,112.580000C61.890000,112.580000,59.890000,111.370000,59.890000,114.740000C59.890000,118.110000,61.510000,125.810000,62.890000,127.830000C65.004296,131.144495,66.940377,134.569355,68.690000,138.090000C70.310000,141.600000,69.770000,148.890000,68.020000,149.970000C66.270000,151.050000,35.760000,178.580000,35.760000,178.580000L10.320000,256.730000L13.690000,281.430000L18.820000,305.720000C18.820000,305.720000,17.740000,307.470000,19.900000,309.500000C22.060000,311.530000,31.240000,326.640000,31.240000,326.640000L34.340000,304.370000L24,271.300000L20.360000,243.500000L44.600000,193.830000L128.820000,208.830000L138,262.940000L121,309.100000L118,331.640000L132.310000,319.090000C133.120000,318.420000,134.740000,314.910000,135.550000,313.020000L144.050000,289.020000L150.390000,250.690000C150.390000,250.690000,97.210000,154.860000,94.510000,149.190000C93.300000,146.630000,94.640000,140.420000,95.320000,137.310000C95.990000,134.480000,97.320000,130.830000,98.690000,129.750000C100.690000,127.590000,101.690000,124.490000,102.200000,121.650000C102.200000,119.650000,103.010000,111.800000,100.990000,113.650000C100.590000,114.190000,99.100000,111.760000,98.430000,108.650000C97.240000,104.080000,94,100.300000,90.360000,97.330000Z" fill="url(#eaedls3i66js46-fill)" stroke="none" stroke-width="1"/>
                        <path id="eaedls3i66js47" d="M83.470000,175.480000C82.148089,176.662025,80.132889,176.604950,78.880000,175.350000C77.926465,173.926608,77.071146,172.439823,76.320000,170.900000C74.970000,168.200000,64.580000,152.900000,64.580000,152.900000C64.580000,152.900000,39.880000,159.240000,35.970000,161.810000C32.060000,164.380000,28.280000,168.150000,26.970000,172.880000C25.660000,177.610000,6.540000,233.110000,5.600000,236.480000C4.660000,239.850000,-0.200000,245.250000,2.090000,258.880000C4.380000,272.510000,17.210000,307.470000,18.560000,307.880000C19.910000,308.290000,33.560000,301.540000,33.560000,301.540000C33.560000,301.540000,22.760000,258.080000,22.760000,253.760000C22.760000,249.440000,32.480000,237.160000,36.390000,228.760000C40.300000,220.360000,43.140000,213.100000,44.490000,209.460000C45.840000,205.820000,32.860000,281.700000,32.860000,281.700000C32.860000,281.700000,32.590000,295.470000,35.150000,296.820000C37.710000,298.170000,66.600000,309.100000,73.350000,311.670000C74.092319,311.881556,74.881252,311.543442,75.240000,310.860000L75.240000,310.860000L79.560000,298.580000C79.560000,298.450000,79.690000,298.310000,79.830000,298.450000C79.901797,298.450000,79.960000,298.508203,79.960000,298.580000L83.960000,311.940000C84.176158,312.624724,84.878266,313.032120,85.580000,312.880000L121.350000,305.190000C121.350000,305.190000,120.810000,239.190000,121.480000,228.120000C122.020000,217.320000,120.670000,211.250000,122.690000,214.220000C124.850000,217.460000,133.890000,247.150000,133.890000,252.150000C133.890000,257.150000,123.830000,301,123.830000,301L137.190000,308.420000C137.190000,308.420000,155.280000,260.240000,156.190000,253.890000C157.100000,247.540000,157.540000,244.170000,154.570000,237.830000C151.600000,231.490000,135.130000,173.830000,135.130000,173.830000C135.130000,173.830000,133.510000,166.830000,121.360000,163.170000C109.210000,159.510000,100.170000,154.170000,98.010000,154.260000C95.850000,154.350000,89.100000,167.080000,86.130000,170.860000C84.820000,172.370000,85.090000,173,83.470000,175.480000Z" fill="url(#eaedls3i66js47-fill)" stroke="none" stroke-width="1"/>
                        <path id="eaedls3i66js48" d="M90.220000,97.460000C90.220000,97.460000,69.840000,104.890000,65.660000,108C62.560000,110.290000,61.880000,112.450000,61.880000,112.450000C61.880000,112.450000,59.720000,111.510000,59.880000,114.610000C60.040000,117.710000,57.450000,109.750000,56.780000,107.190000C55.843062,101.695619,57.658972,96.090960,61.640000,92.190000C67.170000,86.930000,73.250000,83.010000,78.380000,83.280000C83.398063,83.380863,88.179456,85.432594,91.710000,89C95.710000,92.910000,96.710000,92.640000,97.510000,93C98.310000,93.360000,102.510000,97.860000,103.040000,102.720000C103.570000,107.580000,102.100000,114.720000,102.100000,114.720000C101.600199,114.132293,100.737751,114.015862,100.100000,114.450000C99.020000,115.260000,98.750000,109.860000,95.240000,103.250000C92.650000,98.410000,90.220000,97.460000,90.220000,97.460000Z" fill="url(#eaedls3i66js48-fill)" stroke="none" stroke-width="1"/>
                        <path id="eaedls3i66js49" style="isolation:isolate" d="M77.260000,338C75,344.730000,65.930000,358,60,365.920000C54.070000,373.840000,35.830000,390.610000,37,411C38.170000,431.390000,50.500000,483.880000,50.500000,488.610000C50.500000,493.340000,45.910000,515.610000,42.400000,522.490000C38.890000,529.370000,37.270000,541.660000,39.030000,541.660000C42.350360,541.542179,45.650381,541.089891,48.880000,540.310000C51.880000,539.640000,54.820000,538.960000,57.650000,538.020000C58.860000,537.480000,59.130000,533.570000,59.130000,533.570000C59.225460,531.931137,59.042882,530.287936,58.590000,528.710000C57.786046,526.189261,57.171010,523.612129,56.750000,521C56.080000,501.830000,54.320000,457.430000,54.750000,454.330000C55.420000,448.530000,50.750000,419.240000,55.020000,404.800000C59.290000,390.360000,77.260000,338,77.260000,338Z" opacity="0.07" fill="rgb(0,0,0)" stroke="none" stroke-width="1"/>
                        <path id="eaedls3i66js50" style="isolation:isolate" d="M33.540000,301.540000L30.440000,325.540000C30.440000,325.540000,33.540000,330.540000,34.440000,326.350000C35.340000,322.160000,41.860000,314.350000,37.810000,308.670000C33.760000,302.990000,33.540000,301.540000,33.540000,301.540000Z" opacity="0.07" fill="rgb(0,0,0)" stroke="none" stroke-width="1"/>
                        <path id="eaedls3i66js51" style="isolation:isolate" d="M121.260000,308.150000L120.180000,319.620000L118.830000,330.690000C118.830000,330.690000,114.240000,334.060000,114.380000,329.750000C114.520000,325.440000,106.690000,318.950000,112.630000,314.630000C118.570000,310.310000,121.260000,308.150000,121.260000,308.150000Z" opacity="0.07" fill="rgb(0,0,0)" stroke="none" stroke-width="1"/>
                        <path id="eaedls3i66js52" style="isolation:isolate" d="M64.440000,153.070000C65.250000,152.940000,60.530000,154.150000,64.710000,152.800000C71.870000,150.510000,68.900000,137,68.900000,137C68.900000,137,69.570000,142,76.320000,144C83.070000,146,84.820000,144.540000,74.700000,149.260000C64.580000,153.980000,69.840000,155.600000,70.520000,161.810000" opacity="0.07" fill="rgb(0,0,0)" stroke="none" stroke-width="1"/>
                        <path id="eaedls3i66js53" style="isolation:isolate" d="M44.200000,214.080000L32.860000,282.910000C32.860000,282.910000,32.990000,295.190000,35.150000,296.910000C37.310000,298.630000,44.600000,299.910000,46.220000,301.090000C47.840000,302.270000,65.390000,308.090000,60.800000,298.260000C59.720000,296.100000,36.100000,282.870000,46.630000,268.970000C57.160000,255.070000,55.270000,235.900000,50.270000,222.540000C47.266082,214.714387,45.904516,206.354376,46.270000,197.980000Z" opacity="0.07" fill="rgb(0,0,0)" stroke="none" stroke-width="1"/>
                    </g>
                    <g opacity="0" style="animation:eaedls3i66js54_c_o 5000ms linear infinite normal forwards">
                        <g id="eaedls3i66js55">
                            <path id="eaedls3i66js56" d="M590.700000,605C586.830000,598.570000,583.700000,596.870000,574.170000,596.610000C564.640000,596.350000,551.870000,596.480000,551.870000,596.480000L551.740000,610.050000C551.740000,610.050000,562.300000,616.150000,567.940000,619.170000L569.840000,620.280000C570.829293,620.746476,571.860571,621.118138,572.920000,621.390000C578.490000,622.570000,583.540000,621.980000,587.150000,618.390000C591.160000,614.410000,594.570000,611.460000,590.700000,605Z" fill="rgb(32,29,29)" stroke="none" stroke-width="1"/>
                            <path id="eaedls3i66js57" d="M518.500000,593L516.730000,594.380000C515.942104,595.127001,515.219475,595.939958,514.570000,596.810000C511.420000,601.530000,510.050000,606.450000,512.080000,611.170000C514.310000,616.350000,515.820000,620.680000,523.160000,619.430000C530.500000,618.180000,533.320000,615.950000,537.160000,607.230000C541,598.510000,545.620000,586.570000,545.550000,586.570000L533,581.360000C533,581.360000,523.420000,588.900000,518.500000,593Z" fill="rgb(32,29,29)" stroke="none" stroke-width="1"/>
                            <path id="eaedls3i66js58" d="M552.740000,597.100000C552.740000,597.100000,552.940000,610.810000,550.740000,611.100000C548.540000,611.390000,517.740000,606.970000,505.490000,606.310000C493.240000,605.650000,465.420000,597.720000,451.780000,582.310000C439.980000,569,441.780000,554.240000,450.530000,554.240000C459.280000,554.240000,467.250000,546.830000,489.420000,557.390000C511.590000,567.950000,535.060000,569.720000,548.240000,568.670000C561.420000,567.620000,598.340000,560.800000,601.240000,558.670000C604.140000,556.540000,617.960000,550.540000,637.240000,552.670000C656.520000,554.800000,647.400000,570.050000,643.340000,575.950000C637.630000,584.150000,624.130000,592.950000,612.850000,593.330000C601.570000,593.710000,552.740000,597.100000,552.740000,597.100000Z" fill="url(#eaedls3i66js58-fill)" stroke="none" stroke-width="1"/>
                            <path id="eaedls3i66js59" d="M529.910000,357.420000C523.420000,359.780000,515.160000,391.910000,515.160000,391.910000L515.030000,391.780000L514.110000,396.240000L513,402.070000L515.160000,437L536.160000,447.490000L584.360000,460.490000L597.670000,479.490000C597.670000,479.490000,627.510000,509.850000,627.670000,511.950000C627.830000,514.050000,595.600000,524.740000,592.520000,525.200000C585.110000,526.310000,639.930000,512.870000,622.360000,491.560000C614.880000,482.440000,603.930000,455.030000,582.230000,436.870000C569.640000,426.380000,573.230000,396.540000,568.720000,377.650000C563.150000,354.040000,559.720000,346.960000,554.160000,346.960000C549.160000,346.960000,542.090000,352.960000,529.900000,357.520000" fill="url(#eaedls3i66js59-fill)" stroke="none" stroke-width="1"/>
                            <path id="eaedls3i66js60" d="M598.110000,433.680000C588.010000,424.430000,584.600000,422.200000,575.750000,425.350000C566.900000,428.500000,562.570000,431.350000,550.500000,433.350000C543.061866,434.642976,535.407467,433.707052,528.500000,430.660000L503.650000,433.150000C500.500000,432.760000,465.160000,499.150000,464.300000,512.890000C463.780000,521.350000,482.990000,534.400000,488.370000,535.710000C490.530000,536.230000,494.370000,515.380000,495.650000,513.480000L487.620000,511C490.352307,505.000121,493.531243,499.213857,497.130000,493.690000C498.130000,492.180000,505.790000,479.530000,506.840000,474.690000C507.040000,475.150000,508.150000,484.330000,509.200000,487.280000C511.200000,492.720000,513.860000,495.810000,513.860000,500.130000C513.860000,504.450000,513.340000,521.640000,510.190000,529.380000C507.040000,537.120000,502.440000,555,502.440000,555L581.920000,554.540000C581.920000,554.540000,579.030000,520.370000,580.210000,508.640000C580.210000,508.640000,578.960000,503.920000,581.320000,497.100000C585.190000,485.820000,586.320000,469.030000,585.650000,466.410000C584.650000,462.280000,609,497.230000,614.310000,506.080000C616.540000,509.750000,586.310000,516.240000,583.820000,519.080000C581.330000,521.920000,586.380000,530.080000,586.380000,530.080000C586.380000,530.080000,639.100000,523.650000,638.840000,515.590000C638.580000,507.530000,609.850000,444.370000,598.110000,433.680000Z" fill="url(#eaedls3i66js60-fill)" stroke="none" stroke-width="1"/>
                            <path id="eaedls3i66js61" d="M536.280000,338.530000C536.280000,338.530000,521.530000,339.120000,517.280000,354.600000C513.030000,370.080000,512.430000,391.650000,512.280000,395C512.150000,398.540000,513.790000,419.260000,505.850000,427.920000C499.030000,435.400000,501.780000,442.610000,500.080000,448.580000L499.290000,458.480000C499.444388,459.664041,500.258997,460.657088,501.390000,461.040000C502.390000,461.370000,506.110000,459.660000,506.770000,459.400000C515.950000,455.730000,515.950000,452.780000,519.430000,449.830000C522.320000,447.400000,530.250000,441.760000,532.610000,439.530000C534.970000,437.300000,536.610000,435.330000,536.740000,432.530000C537.200000,418.170000,534.740000,404.920000,531.560000,397.910000C528.380000,390.900000,522.380000,379.020000,527.430000,371.150000C532.480000,363.280000,541.590000,355.410000,542.120000,353.440000C542.650000,351.470000,542.910000,361.050000,548.480000,364.440000C554.050000,367.830000,558.710000,372.440000,560.420000,376.970000C561.860000,380.770000,563.760000,387.270000,558.520000,398.480000C553.280000,409.690000,549,424,556.410000,434.730000C563.820000,445.460000,579.410000,456.960000,581.990000,462.340000C584.880000,468.340000,582.120000,482.340000,581.600000,490.800000C581.080000,499.260000,598.130000,476.110000,597.600000,465.090000C597.070000,454.070000,598.910000,449.350000,588.350000,432.430000C577.790000,415.510000,570.910000,386.530000,570.640000,379.510000C570.370000,372.490000,567.230000,353.020000,560.870000,347.440000C555.360000,342.720000,554.180000,338.130000,542.870000,338.130000C540.657516,338.127382,538.446872,338.257616,536.250000,338.520000" fill="url(#eaedls3i66js61-fill)" stroke="none" stroke-width="1"/>
                            <path id="eaedls3i66js62" style="isolation:isolate" d="M502.630000,573L577.130000,573.390000C577.130000,573.390000,568.410000,580.210000,564.210000,581C560.010000,581.790000,542.040000,590.710000,535.360000,587.300000C530.640000,584.770000,502.630000,573,502.630000,573Z" opacity="0.07" fill="rgb(0,0,0)" stroke="none" stroke-width="1"/>
                            <path id="eaedls3i66js63" style="isolation:isolate" d="M544.140000,405.750000C544.140000,405.750000,551.140000,407.520000,553.980000,403.450000C560.470000,394.270000,554.570000,408.110000,554.570000,408.110000C554.570000,408.110000,552.670000,413.490000,552.800000,416.180000C552.930000,418.870000,545.320000,406.180000,544.140000,405.750000" opacity="0.07" fill="rgb(0,0,0)" stroke="none" stroke-width="1"/>
                            <path id="eaedls3i66js64" style="isolation:isolate" d="M516.340000,453C515.490000,454,514.240000,454.900000,513.590000,457.590000C512.480000,461.920000,511.290000,466.770000,508.280000,471.230000C506.510000,473.850000,507.490000,484.020000,510.440000,490.440000C511.290000,492.280000,513.920000,497.060000,513.850000,498.180000L513.650000,507.490000L521.650000,507.490000C521.650000,507.490000,528.470000,508.210000,527.030000,502.570000C525.780000,497.570000,519.290000,479.030000,523.690000,474.960000C531.950000,467.420000,521.530000,452.340000,525.400000,447.480000C528.740000,443.280000,533.530000,440.270000,533.530000,438.890000C533.530000,438.370000,532.280000,440.070000,531.430000,440.660000C529.790000,441.840000,528.940000,442.760000,527.560000,443.660000C526.180000,444.560000,523.760000,446.280000,522.250000,447.400000C520.077268,449.040358,518.094932,450.918714,516.340000,453Z" opacity="0.07" fill="rgb(0,0,0)" stroke="none" stroke-width="1"/>
                        </g>
                        <g id="eaedls3i66js65">
                            <path id="eaedls3i66js66" d="M485.190000,512.700000C485.190000,512.700000,485.120000,507.850000,489.910000,507.700000C494.700000,507.550000,596.080000,507.630000,596.080000,507.630000C596.080000,507.630000,600.540000,508.150000,600.670000,511.760000C600.800000,515.370000,600.800000,568.940000,600.800000,568.940000C600.816944,570.087177,600.363856,571.191350,599.546007,571.995977C598.728159,572.800604,597.616748,573.235637,596.470000,573.200000C592.080000,573.330000,488.730000,573.330000,488.730000,573.330000C488.730000,573.330000,484.860000,572.330000,484.930000,568.480000C485,564.630000,485.190000,512.700000,485.190000,512.700000Z" fill="rgb(255,255,255)" stroke="none" stroke-width="1"/>
                            <circle id="eaedls3i66js67" r="4.390000" transform="matrix(1 0 0 1 543.28999999999996 540.44000000000005)" fill="rgb(238,57,55)" stroke="none" stroke-width="1"/>
                        </g>
                    </g>
                </g>
            </g>
        </g>
    </g>
</svg>
